<svg id="visual" viewBox="0 0 1920 1080" width="1920" height="1080" xmlns="http://www.w3.org/2000/svg" xmlns:xlink="http://www.w3.org/1999/xlink" version="1.1"><rect x="0" y="0" width="1920" height="1080" fill="#F06293"></rect><g transform="translate(1086.7397823841206 451.55827525260975)"><path d="M601 -800.7C769 -705.2 888.6 -516.4 854.4 -343.3C820.1 -170.3 632.1 -13 535.1 139.4C438.1 291.7 432.1 439.1 358.1 612.6C284.1 786 142 985.5 -37.6 1037.3C-217.3 1089.1 -434.6 993.1 -627.2 858.2C-819.7 723.3 -987.6 549.4 -1065.9 339.1C-1144.1 128.9 -1132.7 -117.7 -984.8 -241.7C-836.8 -365.8 -552.3 -367.2 -365.4 -456.6C-178.5 -546.1 -89.3 -723.5 63.6 -811.1C216.5 -898.7 433 -896.3 601 -800.7" fill="#E65C8B"></path></g></svg>